<svg width="40" height="40" viewBox="0 0 40 40" fill="none" xmlns="http://www.w3.org/2000/svg">
<path d="M17.8476 28.958C15.797 30.2289 14.214 29.5579 12.8659 27.7893C12.5548 27.3813 12.1418 27.0509 11.7757 26.6848C9.95296 24.862 9.8997 24.5766 11.014 22.1503C12.7711 18.6465 14.4662 15.2632 16.1614 11.8799C17.8616 9.40771 19.7414 7.11961 22.4029 5.59589C26.2475 3.39481 30.3654 2.93161 34.6656 3.64116C35.6158 3.79795 36.232 4.41665 36.3804 5.36599C37.5411 12.787 35.2401 19.3538 28.2277 23.7143C27.423 24.182 26.7579 24.6282 26.0458 24.9792C23.3212 26.3221 20.5816 27.6343 17.8476 28.958ZM26.2069 10.1784C25.5025 11.5393 25.6299 12.7528 26.5652 13.5921C27.4596 14.3947 28.8628 14.4779 29.8357 13.786C31.0451 12.9259 31.2958 11.2589 30.3886 10.1091C29.3599 8.80511 27.6693 8.78136 26.2069 10.1784Z" fill="#0085DB"/>
<path fill-rule="evenodd" clip-rule="evenodd" d="M11.0169 22.0726C12.7711 18.6465 14.4662 15.2633 16.0649 11.8722C15.4547 11.8695 14.857 11.8716 14.2673 11.8736C13.222 11.8773 12.2019 11.8809 11.1824 11.8573C9.30554 11.8137 7.89898 12.6137 6.92846 14.1716C5.81117 15.9651 4.71711 17.7747 3.67142 19.6107C2.87657 21.0062 3.53139 22.0952 5.13106 22.1103C7.07316 22.1287 9.01556 22.1151 11.0169 22.0726ZM24.051 25.9578C21.9863 26.9684 19.9168 27.9814 17.8546 29.0583C17.8577 29.7525 17.8563 30.4344 17.855 31.1083C17.8525 32.3503 17.8501 33.565 17.8755 34.7791C17.9098 36.4176 19.1276 37.2055 20.4432 36.4336C22.2662 35.364 24.073 34.2627 25.8422 33.1068C27.1374 32.2606 28.0557 31.1079 28.1091 29.466C28.1708 27.5632 28.2066 25.6596 28.1817 23.7679C27.866 23.9402 27.5665 24.118 27.2731 24.2923C26.8613 24.5368 26.4615 24.7742 26.0458 24.9791C25.3816 25.3065 24.7166 25.632 24.051 25.9578Z" fill="#5AC8FA"/>
</svg>
